<?xml version="1.0" standalone="no"?><!-- Generator: Gravit.io --><svg xmlns="http://www.w3.org/2000/svg" xmlns:xlink="http://www.w3.org/1999/xlink" style="isolation:isolate" viewBox="0 0 1920 1280" width="1920" height="1280"><defs><clipPath id="_clipPath_kTlgYMCczZFhyM0s5GqDxoEobAgyBO4X"><rect width="1920" height="1280"/></clipPath></defs><g clip-path="url(#_clipPath_kTlgYMCczZFhyM0s5GqDxoEobAgyBO4X)"><g id="Group"><rect x="1239.098" y="52.932" width="632.782" height="582.256" transform="matrix(1,0,0,1,0,0)" fill="rgb(46,61,138)"/><rect x="1301.654" y="-182.857" width="33.684" height="582.256" transform="matrix(0.004,1,-1,0.004,1421.008,-1210.686)" fill="rgb(46,61,138)"/><rect x="1172.76" y="-4.639" width="33.684" height="283.62" transform="matrix(1,-0.009,0.009,1,-1.177,10.626)" fill="rgb(24,33,77)"/><rect x="1151.426" y="-2.184" width="13.725" height="210.221" transform="matrix(1,-0.009,0.009,1,-0.873,10.346)" fill="rgb(24,33,77)"/><rect x="1797.338" y="454.036" width="33.684" height="372.908" transform="matrix(1,-0.009,0.009,1,-5.646,16.223)" fill="rgb(24,33,77)"/><rect x="1776.597" y="456.488" width="13.725" height="432.479" transform="matrix(1,-0.009,0.009,1,-5.935,15.95)" fill="rgb(24,33,77)"/><rect x="1614.436" y="389.774" width="33.684" height="582.256" transform="matrix(0.004,1,-1,0.004,2305.051,-953.334)" fill="rgb(46,61,138)"/><rect x="1292.03" y="0" width="632.782" height="582.256" transform="matrix(1,0,0,1,0,0)" fill="rgb(24,33,77)"/></g></g></svg>